<svg xmlns="http://www.w3.org/2000/svg" viewBox="0 0 512.003 512.003" xml:space="preserve"><path d="M418.14 290.133a83.104 83.104 0 0 0-25.769 4.01c-2.5-37.622-35.019-66.087-72.632-63.596-33.526 2.227-60.447 28.508-63.468 61.975a58.9 58.9 0 0 0-34.388-10.922c-33.056.068-59.799 26.913-59.73 59.969a59.734 59.734 0 0 0 2.475 16.912 21.707 21.707 0 0 0-2.475-.085 50.362 50.362 0 0 0-28.244 8.533 51.058 51.058 0 0 0-22.186 34.132 46.201 46.201 0 0 0-.768 8.533c0 28.278 22.919 51.197 51.197 51.197H418.14c2.901 0 5.717-.171 8.533-.427 46.829-4.65 81.029-46.376 76.378-93.205a85.17 85.17 0 0 0-7.859-28.218 80.173 80.173 0 0 0-9.898-16.127 85.39 85.39 0 0 0-67.154-32.681z" fill="#78b9eb"/><path d="M466.522 219.822a102.347 102.347 0 0 0-65.447-23.551 101.255 101.255 0 0 0-34.302 5.888c.085-1.963.171-3.925.171-5.888.034-44.456-28.662-83.844-70.994-97.446h-.085a99.844 99.844 0 0 0-31.316-4.949c-56.462-.085-102.31 45.625-102.395 102.088v.307c-.017 4.454.265 8.9.853 13.311a73.52 73.52 0 0 0-26.452-4.778c-36.495.085-67.922 25.769-75.26 61.522-36.709 8.584-59.517 45.301-50.933 82.01 7.219 30.881 34.755 52.725 66.463 52.725h34.9a51.058 51.058 0 0 1 22.186-34.132 50.362 50.362 0 0 1 28.244-8.533c.828-.017 1.655.009 2.475.085-9.403-31.691 8.652-65.004 40.344-74.407a59.744 59.744 0 0 1 16.912-2.475 58.908 58.908 0 0 1 34.388 10.922c3.388-37.545 36.581-65.234 74.125-61.847 33.458 3.021 59.747 29.942 61.975 63.468a83.074 83.074 0 0 1 25.769-4.01 85.403 85.403 0 0 1 67.154 32.681 80.173 80.173 0 0 1 9.898 16.127 100.899 100.899 0 0 0 8.277-40.275 102.658 102.658 0 0 0-36.95-78.843z" fill="#41769e"/><path d="M163.006 209.582a97.741 97.741 0 0 1-.853-13.311 101.828 101.828 0 0 1 29.183-71.676c-44.328-16.085-93.307 6.818-109.392 51.146a85.46 85.46 0 0 0-5.12 29.063 85.925 85.925 0 0 0 3.584 24.489 76.41 76.41 0 0 1 56.147-24.489 73.34 73.34 0 0 1 26.451 4.778z" fill="#ff9811"/><g fill="#231f20"><path d="M512.002 298.666c-.085-61.352-49.883-111.013-111.235-110.928a110.976 110.976 0 0 0-25.428 2.987c-2.176-46.112-32.809-86.012-76.796-100.023a6.529 6.529 0 0 0-.58-.162 109.128 109.128 0 0 0-33.415-5.197 110.147 110.147 0 0 0-75.363 29.635c-49.499-15.035-101.815 12.893-116.85 62.393a93.641 93.641 0 0 0-1.271 49.849 84.578 84.578 0 0 0-16.887 32.195c-40.531 12.501-63.246 55.498-50.745 96.021 9.932 32.195 39.695 54.158 73.392 54.158h25.599c.043 32.971 26.759 59.688 59.73 59.73H418.14c3.166 0 6.238-.179 9.386-.469 48.049-4.65 84.655-45.122 84.476-93.393a92.483 92.483 0 0 0-7.68-36.691 109.013 109.013 0 0 0 7.68-40.105zM162.153 128.008c4.659 0 9.309.418 13.892 1.246-1.015 1.34-1.92 2.739-2.867 4.121-.606.853-1.254 1.707-1.835 2.62-1.783 2.756-3.464 5.572-4.983 8.465-.23.427-.41.853-.631 1.314a104.237 104.237 0 0 0-3.558 7.68c-.435 1.041-.802 2.116-1.212 3.174a110.352 110.352 0 0 0-2.167 6.178 105.128 105.128 0 0 0-1.05 3.609 108.811 108.811 0 0 0-1.519 6.169 102.65 102.65 0 0 0-.742 3.644c-.41 2.236-.717 4.488-.99 6.758-.119 1.075-.29 2.133-.384 3.217-.299 3.302-.486 6.656-.486 10.069v1.707a84.956 84.956 0 0 0-17.066-1.707c-2.679 0-5.342.162-7.995.418-.811.077-1.621.196-2.432.299-1.877.23-3.746.521-5.598.853-.853.162-1.707.333-2.56.521a85.595 85.595 0 0 0-5.845 1.553c-.623.179-1.246.333-1.86.529-2.475.811-4.906 1.707-7.296 2.756-.657.273-1.28.606-1.92.896a97.018 97.018 0 0 0-5.171 2.56c-.853.452-1.655.93-2.483 1.416a78.98 78.98 0 0 0-4.471 2.833c-.759.503-1.519.998-2.261 1.536-.273.196-.563.367-.853.572-4.574-42.127 25.872-79.987 68.007-84.561 2.764-.3 5.554-.454 8.336-.445zm-85.329 264.52c-32.988.009-59.739-26.734-59.739-59.722-.009-27.74 19.088-51.829 46.086-58.16a8.532 8.532 0 0 0 6.434-6.596c6.528-31.802 34.481-54.653 66.949-54.713a64.735 64.735 0 0 1 23.38 4.207 8.528 8.528 0 0 0 11.033-4.889 8.496 8.496 0 0 0 .495-4.224 87.601 87.601 0 0 1-.776-12.159c-.085-51.752 41.803-93.777 93.555-93.862h.307a92.048 92.048 0 0 1 28.654 4.522c.213.068.418.128.64.179 38.594 12.552 64.679 48.578 64.569 89.16 0 1.843-.085 3.669-.162 5.529-.196 4.71 3.456 8.687 8.166 8.883a8.572 8.572 0 0 0 3.251-.495 92.478 92.478 0 0 1 31.41-5.384c51.914.077 93.939 42.221 93.862 94.135a93.987 93.987 0 0 1-2.108 19.66l-.853-1.075c-21.921-27.894-57.665-41.069-92.445-34.08-8.362-41.581-48.842-68.511-90.432-60.148-28.756 5.785-51.701 27.433-59.142 55.805a67.618 67.618 0 0 0-28.073-6.033c-37.681.043-68.221 30.582-68.263 68.263 0 3.029.196 6.05.589 9.053a58.619 58.619 0 0 0-32.425 15.359c-.375.35-.768.674-1.143 1.032a60.032 60.032 0 0 0-5.973 6.775c-.324.427-.631.853-.956 1.306a60.899 60.899 0 0 0-4.847 7.901c-.094.188-.171.393-.256.58a57.674 57.674 0 0 0-3.413 8.593c-.068.222-.188.418-.256.64l-28.118-.042zm349.064 59.338c-2.56.23-5.12.393-7.748.393H162.153c-23.551-.026-42.639-19.114-42.665-42.665a38.34 38.34 0 0 1 .648-7.125 42.65 42.65 0 0 1 18.542-28.466 42.231 42.231 0 0 1 17.672-6.656c.512-.068 1.032-.06 1.544-.111a44.212 44.212 0 0 1 4.753-.307c.35-.026.708-.026 1.058 0 4.685.503 8.891-2.884 9.403-7.569a8.536 8.536 0 0 0-.307-3.345 51.836 51.836 0 0 1-2.116-14.685c.026-28.261 22.936-51.172 51.197-51.197a50.52 50.52 0 0 1 29.447 9.386c3.84 2.731 9.173 1.826 11.895-2.014a8.574 8.574 0 0 0 1.544-4.173c2.969-32.852 32.007-57.085 64.867-54.116 29.268 2.645 52.264 26.187 54.218 55.507.299 4.702 4.352 8.277 9.053 7.978a8.206 8.206 0 0 0 2.116-.41 74.315 74.315 0 0 1 23.116-3.626 76.698 76.698 0 0 1 60.473 29.447 72.83 72.83 0 0 1 8.883 14.506c18.184 38.253 1.911 83.998-36.342 102.182a76.698 76.698 0 0 1-25.266 7.04l.002.026zM162.153 93.876a8.536 8.536 0 0 1-8.533-8.533V51.212a8.536 8.536 0 0 1 8.533-8.533 8.536 8.536 0 0 1 8.533 8.533v34.132c0 4.709-3.823 8.532-8.533 8.532zM115.128 104.969a8.532 8.532 0 0 1-7.884-5.265L94.18 68.132a8.545 8.545 0 0 1 4.616-11.153c4.352-1.8 9.344.265 11.153 4.625l13.064 31.572c1.809 4.352-.265 9.344-4.616 11.153a8.577 8.577 0 0 1-3.268.649v-.009zM75.919 133.128a8.513 8.513 0 0 1-6.033-2.5l-24.14-24.131c-3.388-3.277-3.481-8.678-.213-12.066 3.277-3.388 8.678-3.481 12.066-.213.068.068.145.137.213.213l24.131 24.14c3.328 3.336 3.328 8.738 0 12.066a8.513 8.513 0 0 1-6.024 2.491zM50.474 174.196a8.577 8.577 0 0 1-3.268-.649l-31.529-13.064c-4.352-1.809-6.425-6.801-4.616-11.153 1.809-4.352 6.801-6.425 11.153-4.616l31.572 13.064c4.352 1.8 6.425 6.792 4.625 11.144a8.545 8.545 0 0 1-7.893 5.273h-.044z"/><path d="M42.692 221.87H8.561a8.536 8.536 0 0 1-8.533-8.533 8.536 8.536 0 0 1 8.533-8.533h34.132a8.536 8.536 0 0 1 8.533 8.533c-.001 4.71-3.823 8.533-8.534 8.533z"/></g></svg>